
>>
>> "C:\Program Files (x86)\ffmpegyag\bin\ffmpeg-hi10-heaac.exe" -i "C:\Users\sky\Dropbox\binary.kitchen\bolz_brennen\bolz_stempel_vvs.mp4" -strict experimental -f mp4 -map_chapters -1 -map 0:0 -map 0:1 -sn -c:a:0 aac -b:a:0 192k -c:v:0 libx264 -b:v:0 1000k -mbd:v:0 rd -mbcmp:v:0 rd -cmp:v:0 rd -precmp:v:0 rd -subcmp:v:0 rd -trellis:v:0 1 -y "C:\Users\sky\Dropbox\binary.kitchen\bolz_brennen\video_small\bolz_stempel_vvs.mp4"
>>

ffmpeg version 2.6.2 Copyright (c) 2000-2015 the FFmpeg developers
  built with gcc 4.8.3 (GCC)
  configuration: --enable-static --disable-shared --enable-gpl --enable-nonfree --enable-zlib --enable-bzlib --enable-libfreetype --enable-fontconfig --enable-libass --enable-libfaac --enable-libfdk_aac --enable-libmp3lame --enable-libvorbis --enable-libtheora --enable-libxvid --enable-libx264 --enable-libx265 --enable-libbluray --enable-runtime-cpudetect --disable-debug --enable-w32threads --cpu=i686 --extra-libs=' -L/usr/local/lib -lx265 -lstdc++' --extra-cflags=-static --extra-ldflags=-static
  libavutil      54. 20.100 / 54. 20.100
  libavcodec     56. 26.100 / 56. 26.100
  libavformat    56. 25.101 / 56. 25.101
  libavdevice    56.  4.100 / 56.  4.100
  libavfilter     5. 11.102 /  5. 11.102
  libswscale      3.  1.101 /  3.  1.101
  libswresample   1.  1.100 /  1.  1.100
  libpostproc    53.  3.100 / 53.  3.100
Input #0, mov,mp4,m4a,3gp,3g2,mj2, from 'C:\Users\sky\Dropbox\binary.kitchen\bolz_brennen\bolz_stempel_vvs.mp4':
  Metadata:
    major_brand     : mp42
    minor_version   : 0
    compatible_brands: isommp42
    creation_time   : 2018-02-09 21:58:03
    location        : +49.0095+012.1190/
    location-eng    : +49.0095+012.1190/
  Duration: 00:00:37.85, start: 0.000000, bitrate: 20235 kb/s
    Stream #0:0(eng): Video: h264 (Baseline) (avc1 / 0x31637661), yuvj420p(pc, smpte170m), 1920x1080, 19952 kb/s, SAR 1:1 DAR 16:9, 29.87 fps, 30.01 tbr, 90k tbn, 180k tbc (default)
    Metadata:
      rotate          : 90
      creation_time   : 2018-02-09 21:58:03
      handler_name    : VideoHandle
    Side data:
      displaymatrix: rotation of -90.00 degrees
    Stream #0:1(eng): Audio: aac (LC) (mp4a / 0x6134706D), 48000 Hz, stereo, fltp, 156 kb/s (default)
    Metadata:
      creation_time   : 2018-02-09 21:58:03
      handler_name    : SoundHandle
[swscaler @ 060f7260] deprecated pixel format used, make sure you did set range correctly
No pixel format specified, yuv420p10le for H.264 encoding chosen.
Use -pix_fmt yuv420p for compatibility with outdated media players.
[libx264 @ 06121240] using SAR=1/1
[libx264 @ 06121240] using cpu capabilities: MMX2 SSE2Fast SSSE3 SSE4.2 AVX AVX2 FMA3 LZCNT BMI2
[libx264 @ 06121240] profile High 10, level 4.0, 4:2:0 10-bit
[libx264 @ 06121240] 264 - core 142 - H.264/MPEG-4 AVC codec - Copyleft 2003-2014 - http://www.videolan.org/x264.html - options: cabac=1 ref=3 deblock=1:0:0 analyse=0x3:0x113 me=hex subme=7 psy=1 psy_rd=1.00:0.00 mixed_ref=1 me_range=16 chroma_me=0 trellis=1 8x8dct=1 cqm=0 deadzone=21,11 fast_pskip=1 chroma_qp_offset=-2 threads=6 lookahead_threads=1 sliced_threads=0 nr=0 decimate=1 interlaced=0 bluray_compat=0 constrained_intra=0 bframes=3 b_pyramid=2 b_adapt=1 b_bias=0 direct=1 weightb=1 open_gop=0 weightp=2 keyint=250 keyint_min=25 scenecut=40 intra_refresh=0 rc_lookahead=40 rc=abr mbtree=1 bitrate=1000 ratetol=1.0 qcomp=0.60 qpmin=0 qpmax=81 qpstep=4 ip_ratio=1.40 aq=1:1.00
Output #0, mp4, to 'C:\Users\sky\Dropbox\binary.kitchen\bolz_brennen\video_small\bolz_stempel_vvs.mp4':
  Metadata:
    major_brand     : mp42
    minor_version   : 0
    compatible_brands: isommp42
    location-eng    : +49.0095+012.1190/
    location        : +49.0095+012.1190/
    encoder         : Lavf56.25.101
    Stream #0:0(eng): Video: h264 (libx264) ([33][0][0][0] / 0x0021), yuv420p10le, 1920x1080 [SAR 1:1 DAR 16:9], q=-1--1, 1000 kb/s, 30.01 fps, 90k tbn, 30.01 tbc (default)
    Metadata:
      rotate          : 90
      creation_time   : 2018-02-09 21:58:03
      handler_name    : VideoHandle
      encoder         : Lavc56.26.100 libx264
    Stream #0:1(eng): Audio: aac ([64][0][0][0] / 0x0040), 48000 Hz, stereo, fltp, 192 kb/s (default)
    Metadata:
      creation_time   : 2018-02-09 21:58:03
      handler_name    : SoundHandle
      encoder         : Lavc56.26.100 aac
Stream mapping:
  Stream #0:0 -> #0:0 (h264 (native) -> h264 (libx264))
  Stream #0:1 -> #0:1 (aac (native) -> aac (native))
Press [q] to stop, [?] for help
video:4399kB audio:891kB subtitle:0kB other streams:0kB global headers:0kB muxing overhead: 0.777688%
[libx264 @ 06121240] frame I:6     Avg QP:40.51  size: 41475
[libx264 @ 06121240] frame P:630   Avg QP:45.45  size:  5079
[libx264 @ 06121240] frame B:497   Avg QP:47.81  size:  2124
[libx264 @ 06121240] consecutive B-frames: 12.3% 87.7%  0.0%  0.0%
[libx264 @ 06121240] mb I  I16..4: 25.2% 68.6%  6.2%
[libx264 @ 06121240] mb P  I16..4:  3.1%  4.3%  0.0%  P16..4: 21.1%  0.7%  0.7%  0.0%  0.0%    skip:70.2%
[libx264 @ 06121240] mb B  I16..4:  0.0%  0.0%  0.0%  B16..8: 25.6%  0.1%  0.0%  direct: 0.0%  skip:74.1%  L0:33.1% L1:66.8% BI: 0.1%
[libx264 @ 06121240] final ratefactor: 32.16
[libx264 @ 06121240] 8x8 transform intra:59.2% inter:96.8%
[libx264 @ 06121240] coded y,uvDC,uvAC intra: 9.8% 20.8% 1.9% inter: 2.1% 4.3% 0.0%
[libx264 @ 06121240] i16 v,h,dc,p: 41% 29%  9% 21%
[libx264 @ 06121240] i8 v,h,dc,ddl,ddr,vr,hd,vl,hu: 13%  4% 72%  2%  2%  1%  2%  3%  1%
[libx264 @ 06121240] i4 v,h,dc,ddl,ddr,vr,hd,vl,hu: 23% 14% 16%  9%  9%  7%  8%  8%  5%
[libx264 @ 06121240] i8c dc,h,v,p: 90%  4%  5%  1%
[libx264 @ 06121240] Weighted P-Frames: Y:4.1% UV:1.1%
[libx264 @ 06121240] ref P L0: 74.9% 15.1%  9.9%  0.1%
[libx264 @ 06121240] ref B L0: 81.7% 18.3%
[libx264 @ 06121240] kb/s:954.44
